<svg xmlns="http://www.w3.org/2000/svg" viewBox="0 0 928.8 709"><style type="text/css">  
	.st0{fill:#F2F2F2;}
	.st1{fill:#FFFFFF;}
	.st2{fill:#3F3D56;}
	.st3{fill:#2CC1D7;}
	.st4{fill:#CCCCCC;}
</style><path class="st0" d="M570.1 200.7l4.7 1.1c-2.1 0.3-4.2 0.6-6.3 0.9h-77.3c-5.8-0.7-11.5-1.7-17.3-2.7 -34.5-6.4-67.4-19.4-97-38.4 -18.1-11.7-35.4-26.3-44.8-45.8 -12.7-26.5-8.3-59.9 9.9-82.9 6.7-8.3 14.7-15.2 24-20.5 1.4-0.8 2.8-1.6 4.2-2.3 15.4-7.8 32.7-11 49.9-9.2 29.2 3.2 56.1 21 71.6 45.9 17.1 27.5 20.5 61.1 23.3 93.4 5.2-16.7 24.7-27 41.9-23.3 17.1 3.7 30.4 19.7 32.5 37.1 2.1 17-5.7 34.4-18.5 45.8C570.7 200.2 570.4 200.4 570.1 200.7z"/><path class="st1" d="M510.6 202.7h-3.9c-0.4-0.3-0.7-0.7-0.9-1.2 -0.2-0.5-0.4-1.1-0.7-1.6 -11.4-27.9-25.6-54.5-42.2-79.6 -26.4-40-58.7-75.7-95.9-105.9 -0.6-0.5-1-1.2-0.9-2 0.2-1.6 1.8-2.8 3.4-2.5 0.5 0.1 1 0.3 1.4 0.6C395 30.1 417.1 52 436.8 76c19.8 23.9 37.2 49.7 52 77 8.3 15.2 15.6 31 22.2 47v0.1C511.5 200.9 511.3 202 510.6 202.7z"/><path class="st2" d="M834.3 199.9H98c-14.3 0-26 11.6-26 26v79.2c0 14.3 11.6 26 26 26h736.3c14.3 0 26-11.6 26-26v-79.2C860.2 211.6 848.7 199.9 834.3 199.9zM857.5 305.1c0 12.8-10.5 23.2-23.2 23.2H98c-12.8 0-23.2-10.5-23.2-23.2v-79.2c0-12.8 10.5-23.2 23.2-23.2h736.3c12.8 0 23.2 10.5 23.2 23.2L857.5 305.1 857.5 305.1z"/><path class="st2" d="M834.3 518.2H98c-14.3 0-26-11.6-26-26V413c0-14.3 11.6-26 26-26h736.3c14.3 0 26 11.6 26 26v79.2C860.2 506.6 848.7 518.2 834.3 518.2zM98 389.8c-12.8 0-23.2 10.4-23.2 23.2v79.2c0 12.8 10.4 23.2 23.2 23.2h736.3c12.8 0 23.2-10.4 23.2-23.2V413c0-12.8-10.4-23.2-23.2-23.2L98 389.8 98 389.8z"/><path class="st2" d="M834.3 705.4H98c-14.3 0-26-11.6-26-26v-79.2c0-14.3 11.6-26 26-26h736.3c14.3 0 26 11.6 26 26v79.2C860.2 693.7 848.7 705.4 834.3 705.4zM98 576.9c-12.8 0-23.2 10.4-23.2 23.2v79.2c0 12.8 10.4 23.2 23.2 23.2h736.3c12.8 0 23.2-10.4 23.2-23.2v-79.2c0-12.8-10.4-23.2-23.2-23.2H98z"/><path class="st3" d="M219.3 309.9h-43.7c-12.4 0-22.5-10.1-22.5-22.5v-43.7c0-12.4 10.1-22.5 22.5-22.5h43.7c12.4 0 22.5 10.1 22.5 22.5v43.7C241.8 299.8 231.8 309.9 219.3 309.9z"/><path class="st4" d="M767.6 302.4H285.4c-6.1 0-11-4.9-11-11 0-6.1 4.9-11 11-11h482.3c6.1 0 11 4.9 11 11C778.6 297.5 773.6 302.4 767.6 302.4z"/><path class="st4" d="M610.5 256H285.4c-6.1 0-11-4.9-11-11s4.9-11 11-11h325.2c6.1 0 11 4.9 11 11S616.6 256 610.5 256z"/><path class="st3" d="M219.3 497h-43.7c-12.4 0-22.5-10.1-22.5-22.5v-43.7c0-12.4 10.1-22.5 22.5-22.5h43.7c12.4 0 22.5 10.1 22.5 22.5v43.7C241.8 486.9 231.8 497 219.3 497z"/><path class="st4" d="M767.6 489.5H285.4c-6.1 0-11-4.9-11-11 0-6.1 4.9-11 11-11h482.3c6.1 0 11 4.9 11 11C778.6 484.7 773.6 489.5 767.6 489.5z"/><path class="st4" d="M610.5 443H285.4c-6.1 0-11-4.9-11-11s4.9-11 11-11h325.2c6.1 0 11 4.9 11 11S616.6 443 610.5 443z"/><path class="st3" d="M219.3 684.2h-43.7c-12.4 0-22.5-10.1-22.5-22.5V618c0-12.4 10.1-22.5 22.5-22.5h43.7c12.4 0 22.5 10.1 22.5 22.5v43.7C241.8 674.1 231.8 684.2 219.3 684.2z"/><path class="st4" d="M767.6 676.7H285.4c-6.1 0-11-4.9-11-11s4.9-11 11-11h482.3c6.1 0 11 4.9 11 11C778.6 671.8 773.6 676.7 767.6 676.7z"/><path class="st4" d="M610.5 630.2H285.4c-6.1 0-11-4.9-11-11s4.9-11 11-11h325.2c6.1 0 11 4.9 11 11S616.6 630.2 610.5 630.2z"/></svg>